<?xml version="1.0" encoding="UTF-8" standalone="no"?>
<!DOCTYPE svg PUBLIC "-//W3C//DTD SVG 1.1//EN" "http://www.w3.org/Graphics/SVG/1.1/DTD/svg11.dtd">
<svg width="100%" height="100%" viewBox="0 0 179 128" version="1.1" xmlns="http://www.w3.org/2000/svg" xmlns:xlink="http://www.w3.org/1999/xlink" xml:space="preserve" xmlns:serif="http://www.serif.com/" style="fill-rule:evenodd;clip-rule:evenodd;stroke-linejoin:round;stroke-miterlimit:2;">
    <g transform="matrix(1,0,0,1,-216.066,-721.921)">
        <g transform="matrix(1,0,0,1,-904.545,25.6846)">
            <g transform="matrix(0.527596,0,0,0.795328,555.726,142.5)">
                <path d="M1255.22,704.143C1255.22,702.046 1253.96,700.035 1251.73,698.552C1249.5,697.07 1246.46,696.237 1243.3,696.237L1240.59,696.237C1230.09,696.237 1220.02,699.004 1212.59,703.929C1205.17,708.855 1201,715.536 1201,722.502L1201,829.976C1201,836.942 1205.17,843.623 1212.59,848.549C1220.02,853.474 1230.09,856.241 1240.59,856.241L1243.3,856.241C1246.46,856.241 1249.5,855.408 1251.73,853.926C1253.96,852.443 1255.22,850.432 1255.22,848.335L1255.22,704.143Z" style="fill:rgb(219,87,37);"/>
            </g>
        </g>
        <g transform="matrix(1,0,0,1,-904.545,25.6846)">
            <g transform="matrix(0.75785,0,0,0.641491,263.14,258.905)">
                <path d="M1366.66,732.643C1366.66,724.195 1360.86,717.347 1353.71,717.347L1283.01,717.347L1283.01,747.942L1353.71,747.942C1360.86,747.942 1366.66,741.094 1366.66,732.646L1366.66,732.643Z" style="fill:rgb(219,87,37);"/>
            </g>
        </g>
        <g transform="matrix(1,0,0,1,-904.545,25.6846)">
            <g transform="matrix(0.75785,0,0,0.641491,263.14,323.532)">
                <path d="M1366.66,732.643C1366.66,724.195 1360.86,717.347 1353.71,717.347L1283.01,717.347L1283.01,747.942L1353.71,747.942C1360.86,747.942 1366.66,741.094 1366.66,732.646L1366.66,732.643Z" style="fill:rgb(219,87,37);"/>
            </g>
        </g>
        <g transform="matrix(1,0,0,1,-904.545,25.6846)">
            <g transform="matrix(0.795328,0,0,0.65173,225.469,241.987)">
                <path d="M1213.89,723.348L1181.06,723.348C1150.38,723.348 1125.5,753.704 1125.5,791.15L1125.5,797.329C1125.5,834.775 1150.38,865.131 1181.06,865.131L1213.89,865.131L1213.89,723.348Z" style="fill:rgb(219,87,37);"/>
            </g>
        </g>
    </g>
</svg>
